<svg width="208" height="207" viewBox="0 0 208 207" fill="none" xmlns="http://www.w3.org/2000/svg">
<circle cx="103.854" cy="103.174" r="103.174" fill="#DCE5F4"/>
<path d="M73.7697 85.9907H133.977M73.7697 85.9907C69.0195 85.9907 65.1687 82.1399 65.1687 77.3897C65.1687 72.6395 69.0195 68.7887 73.7697 68.7887H133.977C138.727 68.7887 142.578 72.6395 142.578 77.3897C142.578 82.1399 138.727 85.9907 133.977 85.9907M73.7697 85.9907L73.7697 128.996C73.7697 133.746 77.6205 137.597 82.3707 137.597H125.376C130.126 137.597 133.977 133.746 133.977 128.996V85.9907M95.2722 103.193H112.474" stroke="#2F5597" stroke-width="8.60101" stroke-linecap="round" stroke-linejoin="round"/>
<circle cx="63.724" cy="63.0434" r="23.8804" fill="#2F5597"/>
<path d="M70.8957 70.2153V66.6329C70.8957 65.6828 70.5183 64.7716 69.8465 64.0998C69.1746 63.4279 68.2634 63.0505 67.3133 63.0505C68.2634 63.0505 69.1746 62.6731 69.8465 62.0012C70.5183 61.3294 70.8957 60.4182 70.8957 59.4681V55.8857C70.8957 54.6188 70.3925 53.4039 69.4967 52.5081C68.6009 51.6124 67.386 51.1091 66.1192 51.1091H56.5661V55.8857H66.1192V60.6622H61.3426V65.4388H66.1192V70.2153H56.5661V74.9919H66.1192C67.386 74.9919 68.6009 74.4886 69.4967 73.5929C70.3925 72.6971 70.8957 71.4821 70.8957 70.2153ZM63.7309 39.1677C66.8672 39.1677 69.9729 39.7855 72.8705 40.9857C75.768 42.1859 78.4009 43.9451 80.6186 46.1628C82.8363 48.3805 84.5955 51.0134 85.7957 53.911C86.9959 56.8085 87.6137 59.9142 87.6137 63.0505C87.6137 69.3846 85.0975 75.4593 80.6186 79.9382C76.1397 84.4171 70.065 86.9333 63.7309 86.9333C60.5946 86.9333 57.489 86.3155 54.5914 85.1153C51.6938 83.9151 49.061 82.1559 46.8432 79.9382C42.3644 75.4593 39.8481 69.3846 39.8481 63.0505C39.8481 56.7164 42.3644 50.6417 46.8432 46.1628C51.3221 41.6839 57.3968 39.1677 63.7309 39.1677Z" fill="#DCE5F4"/>
</svg>
