<svg width="207" height="207" viewBox="0 0 207 207" fill="none" xmlns="http://www.w3.org/2000/svg">
<circle cx="103.472" cy="103.174" r="103.174" fill="#DCE5F4"/>
<path d="M64.7871 94.4592H142.196M81.9891 115.962H86.2896M103.492 115.962H107.792M77.6886 133.164H129.295C136.42 133.164 142.196 127.388 142.196 120.262V85.8582C142.196 78.7329 136.42 72.9567 129.295 72.9567H77.6886C70.5633 72.9567 64.7871 78.7329 64.7871 85.8582V120.262C64.7871 127.388 70.5633 133.164 77.6886 133.164Z" stroke="#2F5597" stroke-width="8.60101" stroke-linecap="round" stroke-linejoin="round"/>
<circle cx="63.3423" cy="63.0432" r="23.8804" fill="#2F5597"/>
<path d="M58.5728 51.1091V55.8857H63.3493V74.9919H68.1259V51.1091H58.5728ZM63.3493 39.1677C66.4857 39.1677 69.5913 39.7855 72.4889 40.9857C75.3865 42.1859 78.0193 43.9451 80.237 46.1628C82.4547 48.3805 84.2139 51.0134 85.4141 53.911C86.6143 56.8085 87.2321 59.9142 87.2321 63.0505C87.2321 69.3846 84.7159 75.4593 80.237 79.9382C75.7581 84.4171 69.6834 86.9333 63.3493 86.9333C60.213 86.9333 57.1074 86.3155 54.2098 85.1153C51.3122 83.9151 48.6794 82.1559 46.4617 79.9382C41.9828 75.4593 39.4666 69.3846 39.4666 63.0505C39.4666 56.7164 41.9828 50.6417 46.4617 46.1628C50.9405 41.6839 57.0152 39.1677 63.3493 39.1677Z" fill="#DCE5F4"/>
</svg>
