<svg width="207" height="207" viewBox="0 0 207 207" fill="none" xmlns="http://www.w3.org/2000/svg">
<circle cx="103.326" cy="103.174" r="103.174" fill="#DCE5F4"/>
<path d="M93.0901 108.697C91.4106 107.017 88.6877 107.017 87.0083 108.697C85.3288 110.376 85.3288 113.099 87.0083 114.778L93.0901 108.697ZM98.6502 120.339L95.6093 123.379C97.2887 125.059 100.012 125.059 101.691 123.379L98.6502 120.339ZM118.893 106.177C120.573 104.498 120.573 101.775 118.893 100.096C117.214 98.4162 114.491 98.4162 112.811 100.096L118.893 106.177ZM128.754 81.634V133.24H137.355V81.634H128.754ZM124.453 137.541H81.4482V146.142H124.453V137.541ZM77.1477 133.24V81.634H68.5467V133.24H77.1477ZM81.4482 77.3335H90.0492V68.7325H81.4482V77.3335ZM115.852 77.3335H124.453V68.7325H115.852V77.3335ZM81.4482 137.541C79.0731 137.541 77.1477 135.615 77.1477 133.24H68.5467C68.5467 140.365 74.3229 146.142 81.4482 146.142V137.541ZM128.754 133.24C128.754 135.615 126.828 137.541 124.453 137.541V146.142C131.579 146.142 137.355 140.365 137.355 133.24H128.754ZM137.355 81.634C137.355 74.5087 131.579 68.7325 124.453 68.7325V77.3335C126.828 77.3335 128.754 79.2589 128.754 81.634H137.355ZM77.1477 81.634C77.1477 79.2589 79.0731 77.3335 81.4482 77.3335V68.7325C74.3229 68.7325 68.5467 74.5087 68.5467 81.634H77.1477ZM87.0083 114.778L95.6093 123.379L101.691 117.298L93.0901 108.697L87.0083 114.778ZM101.691 123.379L118.893 106.177L112.811 100.096L95.6093 117.298L101.691 123.379ZM98.6502 68.7325H107.251V60.1315H98.6502V68.7325ZM107.251 77.3335H98.6502V85.9345H107.251V77.3335ZM98.6502 77.3335C96.2751 77.3335 94.3497 75.4081 94.3497 73.033H85.7487C85.7487 80.1583 91.5249 85.9345 98.6502 85.9345V77.3335ZM111.552 73.033C111.552 75.4081 109.626 77.3335 107.251 77.3335V85.9345C114.376 85.9345 120.153 80.1583 120.153 73.033H111.552ZM107.251 68.7325C109.626 68.7325 111.552 70.6579 111.552 73.033H120.153C120.153 65.9077 114.376 60.1315 107.251 60.1315V68.7325ZM98.6502 60.1315C91.5249 60.1315 85.7487 65.9077 85.7487 73.033H94.3497C94.3497 70.6579 96.2751 68.7325 98.6502 68.7325V60.1315Z" fill="#2F5597"/>
<circle cx="63.1962" cy="63.0432" r="23.8804" fill="#2F5597"/>
<path d="M56.0385 51.1091V55.8857H65.5916V60.6622H60.8151C59.5482 60.6622 58.3333 61.1655 57.4375 62.0612C56.5417 62.957 56.0385 64.172 56.0385 65.4388V74.9919H70.3682V70.2153H60.8151V65.4388H65.5916C66.8584 65.4388 68.0734 64.9355 68.9691 64.0398C69.8649 63.144 70.3682 61.929 70.3682 60.6622V55.8857C70.3682 54.6188 69.8649 53.4039 68.9691 52.5081C68.0734 51.6124 66.8584 51.1091 65.5916 51.1091H56.0385ZM63.2033 39.1677C66.3397 39.1677 69.4453 39.7855 72.3429 40.9857C75.2405 42.1859 77.8733 43.9451 80.091 46.1628C82.3087 48.3805 84.0679 51.0134 85.2681 53.911C86.4684 56.8085 87.0861 59.9142 87.0861 63.0505C87.0861 69.3846 84.5699 75.4593 80.091 79.9382C75.6121 84.4171 69.5374 86.9333 63.2033 86.9333C60.067 86.9333 56.9614 86.3155 54.0638 85.1153C51.1662 83.9151 48.5334 82.1559 46.3157 79.9382C41.8368 75.4593 39.3206 69.3846 39.3206 63.0505C39.3206 56.7164 41.8368 50.6417 46.3157 46.1628C50.7945 41.6839 56.8692 39.1677 63.2033 39.1677Z" fill="#DCE5F4"/>
</svg>
